<?xml version="1.0" standalone="no"?>
<!DOCTYPE svg PUBLIC "-//W3C//DTD SVG 20010904//EN"
 "http://www.w3.org/TR/2001/REC-SVG-20010904/DTD/svg10.dtd">
<svg version="1.0" xmlns="http://www.w3.org/2000/svg"
 width="1300.000000pt" height="1300.000000pt" viewBox="0 0 1300.000000 1300.000000"
 preserveAspectRatio="xMidYMid meet">

<g transform="translate(0.000000,1300.000000) scale(0.100000,-0.100000)"
fill="#000000" stroke="none">
<path d="M9992 10700 c0 -14 2 -19 5 -12 2 6 2 18 0 25 -3 6 -5 1 -5 -13z"/>
<path d="M9690 10640 c-8 -5 -10 -10 -5 -10 6 0 17 5 25 10 8 5 11 10 5 10 -5
0 -17 -5 -25 -10z"/>
<path d="M9972 10565 c0 -16 2 -22 5 -12 2 9 2 23 0 30 -3 6 -5 -1 -5 -18z"/>
<path d="M9962 10495 c0 -16 2 -22 5 -12 2 9 2 23 0 30 -3 6 -5 -1 -5 -18z"/>
<path d="M9215 10480 c-13 -6 -15 -9 -5 -9 8 0 22 4 30 9 18 12 2 12 -25 0z"/>
<path d="M9951 10414 c0 -11 3 -14 6 -6 3 7 2 16 -1 19 -3 4 -6 -2 -5 -13z"/>
<path d="M8885 10370 c-13 -6 -15 -9 -5 -9 8 0 22 4 30 9 18 12 2 12 -25 0z"/>
<path d="M8815 10345 c-25 -12 -26 -14 -5 -9 28 7 60 23 45 23 -5 0 -23 -6
-40 -14z"/>
<path d="M9942 10340 c0 -14 2 -19 5 -12 2 6 2 18 0 25 -3 6 -5 1 -5 -13z"/>
<path d="M9921 10194 c0 -11 3 -14 6 -6 3 7 2 16 -1 19 -3 4 -6 -2 -5 -13z"/>
<path d="M5410 10148 c-468 -44 -920 -262 -1250 -604 -316 -328 -508 -745
-559 -1216 -14 -124 -15 -1028 -1 -1028 5 0 58 33 118 73 60 41 155 97 211
126 56 29 104 58 107 64 2 7 8 181 13 387 8 320 12 389 30 472 142 657 593
1115 1223 1242 42 9 139 20 215 26 164 12 1742 13 1761 2 30 -20 -59 -187
-159 -296 -120 -130 -287 -233 -454 -278 -74 -19 -115 -21 -515 -28 -429 -6
-436 -7 -535 -33 -361 -97 -602 -345 -702 -726 -22 -84 -26 -123 -30 -314 -3
-120 -2 -222 3 -227 5 -5 54 -3 109 5 55 8 154 18 220 22 l120 8 6 190 c5 157
10 200 27 248 46 127 135 236 242 296 120 66 104 64 575 71 543 9 614 20 857
141 128 63 196 107 293 190 152 128 258 266 350 454 70 144 95 216 125 351 37
172 50 422 19 373 -7 -12 -9 -11 -9 4 0 16 -61 17 -1157 16 -637 -1 -1201 -6
-1253 -11z m2380 -10 c0 -4 -4 -8 -8 -8 -4 0 -6 -31 -4 -70 3 -40 0 -70 -5
-70 -18 0 -23 13 -11 27 9 11 9 16 0 21 -6 4 -10 30 -10 58 2 41 5 50 20 50
10 0 18 -4 18 -8z m20 -18 c0 -5 -5 -10 -11 -10 -5 0 -7 5 -4 10 3 6 8 10 11
10 2 0 4 -4 4 -10z m20 -50 c0 -5 -5 -10 -11 -10 -5 0 -7 5 -4 10 3 6 8 10 11
10 2 0 4 -4 4 -10z m-9 -59 c7 10 8 8 6 -8 -3 -24 -17 -44 -17 -25 0 5 -2 16
-3 24 -2 7 -2 9 1 4 2 -4 8 -2 13 5z m-41 -71 c0 -22 -3 -40 -7 -40 -5 0 -7
15 -6 32 2 47 2 48 8 48 3 0 5 -18 5 -40z m43 -15 c-3 -9 -8 -14 -10 -11 -3 3
-2 9 2 15 9 16 15 13 8 -4z m-9 -57 c-4 -18 -7 -43 -6 -55 1 -13 -3 -23 -9
-23 -5 0 -7 -5 -3 -12 4 -7 3 -8 -4 -4 -7 4 -12 14 -12 22 0 8 5 12 10 9 6 -3
10 -1 10 4 0 6 -4 11 -9 11 -6 0 -3 12 5 28 7 15 14 33 14 40 0 6 3 12 6 12 3
0 2 -15 -2 -32z m-34 2 c0 -11 -2 -20 -4 -20 -2 0 -6 9 -9 20 -3 11 -1 20 4
20 5 0 9 -9 9 -20z m-10 -50 c0 -5 -5 -10 -11 -10 -5 0 -7 5 -4 10 3 6 8 10
11 10 2 0 4 -4 4 -10z m13 -104 c-3 -4 -9 -2 -14 5 -13 22 -11 31 5 17 8 -7
12 -17 9 -22z m-12 -21 c5 4 6 -1 2 -10 -5 -13 -7 -14 -14 -3 -5 7 -8 18 -8
23 0 6 3 4 6 -3 2 -6 9 -10 14 -7z m-11 -75 c-6 -11 -12 -20 -14 -20 -2 0 -2
9 1 20 3 11 9 20 15 20 5 0 4 -9 -2 -20z"/>
<path d="M9912 10130 c0 -14 2 -19 5 -12 2 6 2 18 0 25 -3 6 -5 1 -5 -13z"/>
<path d="M8460 10026 c0 -2 8 -10 18 -17 15 -13 16 -12 3 4 -13 16 -21 21 -21
13z"/>
<path d="M9891 9974 c0 -11 3 -14 6 -6 3 7 2 16 -1 19 -3 4 -6 -2 -5 -13z"/>
<path d="M9881 9904 c0 -11 3 -14 6 -6 3 7 2 16 -1 19 -3 4 -6 -2 -5 -13z"/>
<path d="M9871 9834 c0 -11 3 -14 6 -6 3 7 2 16 -1 19 -3 4 -6 -2 -5 -13z"/>
<path d="M9861 9764 c0 -11 3 -14 6 -6 3 7 2 16 -1 19 -3 4 -6 -2 -5 -13z"/>
<path d="M8799 9673 c-13 -16 -12 -17 4 -4 16 13 21 21 13 21 -2 0 -10 -8 -17
-17z"/>
<path d="M9811 9414 c0 -11 3 -14 6 -6 3 7 2 16 -1 19 -3 4 -6 -2 -5 -13z"/>
<path d="M8549 9383 c-13 -16 -12 -17 4 -4 9 7 17 15 17 17 0 8 -8 3 -21 -13z"/>
<path d="M9801 9334 c0 -11 3 -14 6 -6 3 7 2 16 -1 19 -3 4 -6 -2 -5 -13z"/>
<path d="M8429 9243 c-13 -16 -12 -17 4 -4 9 7 17 15 17 17 0 8 -8 3 -21 -13z"/>
<path d="M8339 9143 c-13 -16 -12 -17 4 -4 9 7 17 15 17 17 0 8 -8 3 -21 -13z"/>
<path d="M9772 9110 c0 -14 2 -19 5 -12 2 6 2 18 0 25 -3 6 -5 1 -5 -13z"/>
<path d="M9762 9030 c0 -14 2 -19 5 -12 2 6 2 18 0 25 -3 6 -5 1 -5 -13z"/>
<path d="M8022 8807 c-51 -51 -89 -97 -85 -101 4 -4 1 -6 -7 -4 -8 2 -14 -3
-12 -10 1 -8 -1 -11 -6 -8 -5 3 -49 -31 -98 -76 -377 -341 -771 -592 -1149
-731 -414 -153 -663 -204 -1165 -237 -209 -14 -505 -45 -680 -71 -428 -64
-769 -193 -1053 -396 -360 -259 -641 -703 -738 -1167 -22 -104 -22 -109 -5
-122 10 -7 106 -34 213 -60 166 -40 196 -45 208 -33 7 8 23 50 35 94 166 605
560 1000 1150 1152 152 39 509 90 777 112 530 43 677 62 925 117 355 78 702
215 1063 417 183 103 531 349 519 368 -3 6 0 9 8 7 16 -3 102 61 93 70 -3 4
-10 1 -14 -6 -10 -16 -51 -24 -51 -10 0 5 6 8 14 5 7 -3 21 4 31 16 12 14 14
22 7 25 -7 2 -10 8 -6 13 10 16 24 10 24 -11 0 -31 20 -24 75 26 33 31 39 39
17 24 l-33 -22 -18 21 c-10 11 -21 18 -25 14 -12 -12 -6 13 7 26 10 11 10 13
0 7 -7 -4 -13 -2 -13 4 0 6 -5 8 -12 4 -7 -5 -8 -3 -2 7 11 19 13 30 14 124 2
118 -3 133 -10 30 l-6 -90 -2 103 c-1 57 2 101 6 98 4 -2 8 7 9 22 2 24 1 24
-7 7 -9 -20 -9 -20 -9 1 -1 11 5 26 12 33 10 11 10 13 0 7 -7 -4 -13 -3 -13 1
0 5 6 15 13 22 10 11 10 13 0 7 -9 -5 -13 0 -13 16 0 18 2 20 10 8 8 -13 10
-12 10 3 0 12 -6 17 -17 15 -11 -2 -17 -12 -16 -23 1 -11 0 -14 -3 -7 -3 6
-10 10 -15 6 -17 -10 -9 17 11 38 11 12 20 16 20 10 0 -7 5 -12 11 -12 8 0 8
4 -1 15 -6 8 -9 19 -5 25 3 5 -2 10 -14 10 -11 0 -23 -4 -26 -10 -3 -5 -1 -10
4 -10 6 0 -1 -14 -16 -30 -14 -17 -29 -28 -31 -25 -3 3 5 16 18 30 15 16 19
25 10 25 -8 0 -4 8 10 20 12 11 27 17 33 13 6 -3 7 -1 3 6 -4 6 6 25 26 44 52
53 92 97 87 97 -2 0 -46 -42 -97 -93z m-24 -399 c-2 -217 -6 -202 -10 35 -2
86 0 157 5 157 4 0 6 -87 5 -192z m-20 97 c-1 -36 -4 -62 -7 -59 -8 8 -8 133
0 128 4 -2 7 -33 7 -69z m-1 -227 c-3 -7 -5 -2 -5 12 0 14 2 19 5 13 2 -7 2
-19 0 -25z m0 -60 c-3 -8 -6 -5 -6 6 -1 11 2 17 5 13 3 -3 4 -12 1 -19z m83
-28 c11 -21 4 -25 -19 -11 -7 5 -10 14 -7 20 10 15 14 14 26 -9z m-83 -42 c2
-17 0 -19 -7 -8 -5 8 -6 18 -4 22 8 12 10 10 11 -14z m73 12 c0 -5 -4 -10 -10
-10 -5 0 -10 5 -10 10 0 6 5 10 10 10 6 0 10 -4 10 -10z"/>
<path d="M8639 8723 c-13 -16 -12 -17 4 -4 9 7 17 15 17 17 0 8 -8 3 -21 -13z"/>
<path d="M8499 8573 l-34 -38 38 34 c20 19 37 36 37 38 0 8 -8 0 -41 -34z"/>
<path d="M8399 8473 c-13 -16 -12 -17 4 -4 9 7 17 15 17 17 0 8 -8 3 -21 -13z"/>
<path d="M8339 8413 l-34 -38 38 34 c20 19 37 36 37 38 0 8 -8 0 -41 -34z"/>
<path d="M8230 8315 c-13 -14 -30 -23 -38 -20 -8 3 -10 0 -6 -6 4 -6 0 -15 -7
-20 -8 -5 -9 -9 -4 -9 6 0 29 18 50 40 21 22 37 40 34 40 -3 0 -16 -11 -29
-25z"/>
<path d="M5235 6944 c-189 -25 -321 -46 -336 -54 -16 -9 -18 -39 -22 -422 -4
-381 -6 -421 -26 -512 -70 -316 -253 -588 -506 -754 -83 -54 -205 -110 -261
-119 l-34 -6 0 707 c0 444 -4 706 -10 706 -27 0 -150 -160 -219 -285 -84 -151
-137 -303 -186 -530 -40 -187 -46 -284 -43 -715 l3 -405 141 2 c158 1 242 12
389 49 589 148 1051 640 1174 1249 34 170 42 311 39 710 l-3 380 -35 1 c-19 1
-48 0 -65 -2z"/>
<path d="M1651 3802 c-94 -48 -95 -218 -2 -267 69 -35 174 -5 205 59 65 137
-70 277 -203 208z"/>
<path d="M9355 3768 c-3 -7 -4 -348 -3 -758 l3 -745 115 0 115 0 0 755 0 755
-113 3 c-84 2 -114 -1 -117 -10z"/>
<path d="M405 3688 c-3 -7 -4 -330 -3 -718 l3 -705 115 0 115 0 6 290 c3 160
6 291 7 292 1 2 149 4 330 5 l327 3 0 100 0 100 -323 5 c-272 4 -324 7 -332
20 -13 20 -13 380 0 400 8 13 65 16 377 20 l368 5 0 95 0 95 -493 3 c-389 2
-494 0 -497 -10z"/>
<path d="M8156 3688 c-2 -7 -3 -330 -3 -718 l2 -705 115 0 115 0 6 290 c3 160
6 291 7 292 1 2 152 4 335 5 l332 3 0 100 0 100 -328 5 c-277 4 -329 7 -337
20 -13 20 -13 380 0 400 8 13 65 16 377 20 l368 5 0 95 0 95 -493 3 c-389 2
-493 0 -496 -10z"/>
<path d="M2579 3347 c-52 -15 -133 -64 -169 -102 -13 -14 -26 -25 -30 -25 -4
0 -8 26 -9 58 -1 31 -6 61 -10 65 -4 4 -55 6 -112 5 l-104 -3 0 -540 0 -540
115 0 115 0 5 335 c4 217 10 347 18 369 30 89 96 147 195 172 101 25 207 -26
250 -120 21 -44 22 -65 27 -401 l5 -355 115 0 115 0 0 385 c0 338 -2 392 -17
439 -38 117 -114 203 -217 242 -69 27 -222 35 -292 16z"/>
<path d="M3634 3345 c-67 -14 -195 -70 -233 -102 l-24 -20 39 -73 c21 -40 45
-75 52 -77 7 -3 44 9 82 26 38 18 105 40 149 49 69 14 88 14 142 3 79 -16 132
-42 157 -78 26 -36 44 -106 37 -136 l-7 -25 -201 -4 c-170 -5 -213 -9 -269
-27 -93 -30 -146 -73 -186 -151 -33 -64 -34 -67 -30 -170 5 -122 21 -163 89
-224 77 -71 114 -81 284 -81 166 0 193 8 279 81 22 19 41 32 43 30 3 -2 7 -26
11 -53 l7 -48 105 0 105 0 3 375 c2 257 -1 392 -8 430 -42 195 -199 291 -475
289 -49 0 -118 -7 -151 -14z m396 -610 c18 -22 7 -122 -19 -172 -42 -83 -134
-133 -246 -133 -109 0 -182 55 -192 142 -9 80 28 133 115 164 56 20 325 19
342 -1z"/>
<path d="M5027 3350 c-57 -15 -127 -54 -174 -97 l-42 -39 -6 40 c-2 23 -6 52
-7 66 -3 25 -3 25 -113 25 l-110 0 0 -540 0 -540 115 0 115 0 6 330 c3 191 10
343 16 361 34 98 93 154 189 180 84 22 153 9 212 -41 75 -65 76 -74 82 -475
l5 -355 115 0 115 0 3 374 c2 312 0 385 -13 435 -30 117 -92 194 -200 247 -60
29 -76 33 -168 35 -56 2 -119 -1 -140 -6z"/>
<path d="M6171 3344 c-184 -49 -328 -195 -376 -381 -20 -75 -19 -242 0 -317
38 -145 138 -274 262 -339 93 -48 156 -60 298 -55 110 3 126 6 187 35 99 47
220 168 205 207 -6 16 -138 96 -157 96 -7 0 -36 -22 -65 -48 -77 -70 -115 -87
-205 -87 -65 0 -82 4 -128 30 -61 33 -93 67 -126 134 -76 151 -53 345 54 452
37 37 62 52 116 68 60 19 75 20 124 10 68 -14 120 -40 169 -84 21 -19 44 -35
51 -35 27 0 160 91 160 110 0 10 -23 43 -51 74 -58 64 -161 120 -248 136 -76
14 -206 11 -270 -6z"/>
<path d="M7251 3344 c-159 -43 -301 -181 -351 -340 -10 -34 -22 -100 -25 -146
-24 -294 126 -526 381 -592 80 -21 260 -21 337 -1 111 29 237 113 237 157 0
22 -98 137 -118 138 -7 0 -37 -18 -67 -41 -66 -50 -127 -69 -216 -69 -84 0
-167 29 -220 77 -42 38 -86 120 -91 168 l-3 30 390 5 390 5 3 75 c11 267 -131
474 -365 535 -72 19 -211 18 -282 -1z m238 -200 c92 -27 171 -131 171 -226 l0
-28 -270 0 -270 0 0 33 c0 49 42 129 91 170 74 63 175 82 278 51z"/>
<path d="M10205 3341 c-185 -53 -321 -194 -370 -386 -20 -77 -19 -230 1 -309
38 -148 137 -277 260 -339 98 -49 160 -60 302 -55 118 4 123 5 205 46 445 220
374 934 -104 1047 -84 20 -218 18 -294 -4z m280 -217 c93 -43 143 -119 166
-248 21 -123 -13 -253 -87 -335 -49 -55 -105 -83 -179 -88 -200 -16 -338 147
-322 382 9 134 52 220 136 274 88 57 188 62 286 15z"/>
<path d="M1615 3338 c-3 -7 -4 -251 -3 -543 l3 -530 110 0 110 0 0 540 0 540
-108 3 c-80 2 -109 -1 -112 -10z"/>
<path d="M10980 3328 c0 -24 15 -73 202 -663 66 -209 125 -386 131 -393 7 -9
40 -12 121 -10 l111 3 57 170 c31 94 84 257 118 363 41 127 66 190 72 184 5
-5 62 -169 126 -363 l117 -354 111 -3 c81 -2 114 1 121 10 6 7 34 90 63 183
28 94 99 321 157 505 59 184 108 347 111 363 l4 27 -100 0 c-72 0 -103 -4
-111 -14 -6 -7 -61 -179 -122 -382 -60 -203 -114 -373 -118 -377 -10 -10 -41
83 -160 463 -43 140 -84 267 -90 283 -10 27 -11 27 -106 27 -87 0 -96 -2 -109
-22 -8 -13 -62 -178 -121 -368 -59 -190 -113 -356 -120 -369 -14 -27 -4 -53
-125 354 -39 132 -84 276 -98 320 l-27 80 -107 3 c-106 3 -108 2 -108 -20z"/>
</g>
</svg>
