<svg width="200" height="200" viewBox="0 0 200 200" xmlns="http://www.w3.org/2000/svg">
  <rect width="200" height="200" rx="32" fill="#0a0a0f"/>
  <rect width="200" height="200" rx="32" fill="none" stroke="#00ff8830" stroke-width="1"/>
  <polygon points="30,160 30,120 60,120 60,80 90,80 90,100 120,100 120,60 150,60 150,160" fill="#00ff8818"/>
  <polyline points="30,160 60,120 90,80 120,100 150,60" fill="none" stroke="#00ff88" stroke-width="3" stroke-linecap="round" stroke-linejoin="round"/>
  <circle cx="30" cy="160" r="4" fill="#00ff88"/>
  <circle cx="60" cy="120" r="4" fill="#00ff88"/>
  <circle cx="90" cy="80" r="4" fill="#00ff88"/>
  <circle cx="120" cy="100" r="3.5" fill="#00ff88" opacity="0.7"/>
  <circle cx="150" cy="60" r="5" fill="#00ff88"/>
  <circle cx="150" cy="60" r="9" fill="none" stroke="#00ff88" stroke-width="1.5" opacity="0.4"/>
  <line x1="18" y1="168" x2="168" y2="168" stroke="#ffffff18" stroke-width="1"/>
  <line x1="18" y1="168" x2="18" y2="48" stroke="#ffffff18" stroke-width="1"/>
</svg>
